<svg xmlns="http://www.w3.org/2000/svg" width="255" height="255" viewBox="0 0 285 285">
	<path
		d="m 267.5,134.1 c 6.1,-0.9 8.4,-1.2 11.7,-2.4 4.2,-1.4 7.1,-4.8 7.1,-9.5 0,-4.5 -3,-8.3 -7.1,-9.5 -3.3,-1 -8.2,-0.2 -11.7,0.1 l -109,11 c -9.2,0.9 -18.7,0.9 -27.9,0 l -108.9,-11 c -3.5,-0.4 -8.4,-1.2 -11.7,-0.1 -4.2,1.2 -7.1,5.1 -7.1,9.5 0,4.7 3,8.1 7.1,9.5 3.2,1.1 5.6,1.4 11.7,2.4 l 104.2,16.7 c 12.3,1.9 25,1.9 37.3,0 z"
		id="XMLID_7_"
		style="fill: #ff7a00"
	/>
	<path
		d="m 248.3,84 c 3.5,-0.2 8.4,-0.4 11.7,-1.4 4.2,-1.2 7.1,-5.1 7.1,-9.5 0,-4.4 -3,-8.3 -7.1,-9.5 -3.3,-1 -8.2,-0.9 -11.7,-0.9 H 40.8 c -3.5,0 -8.4,-0.1 -11.7,0.9 -4.2,1.2 -7.1,5.1 -7.1,9.5 0,4.4 3,8.3 7.1,9.5 3.3,0.9 8.2,1.2 11.7,1.4 l 92.2,6.6 c 7.6,0.5 15.4,0.5 22.9,0 z"
		style="fill: #ff7a00"
	/>
	<path
		d="M 177,4.1 C 155.3,1.6 133.6,1.6 111.9,4.1 L 79.5,7.8 C 76,8.2 71.1,8.4 67.8,9.5 c -3.3,1.1 -7.1,4.2 -7.1,9.5 0,4.6 3,8.3 7.1,9.5 3.3,0.9 8.2,0.9 11.7,0.9 h 130 c 3.5,0 8.4,0.1 11.7,-0.9 4.1,-1.2 7.1,-4.9 7.1,-9.5 0,-5.3 -3.8,-8.4 -7.1,-9.5 C 218,8.5 213,8.2 209.5,7.8 Z"
		style="fill: #ff7a00"
	/>
	<path
		d="m 123.1,210.9 c 14.1,3.5 28.7,3.5 42.9,0 l 94.6,-23.2 c 6,-1.4 8.4,-1.9 11.7,-3 4.2,-1.4 7.1,-4.9 7.1,-9.5 0,-4.5 -3,-8.4 -7.1,-9.6 -3.3,-0.9 -8.2,0.3 -11.7,0.9 l -102.3,18.3 c -9,1.6 -18.5,1.6 -27.6,0 L 28.5,166.5 c -3.5,-0.6 -8.4,-1.9 -11.7,-0.9 -4.2,1.2 -7.1,5.1 -7.1,9.6 0,4.6 3,8.2 7.1,9.5 3.3,1.1 5.7,1.6 11.7,3 z"
		id="XMLID_4_"
		style="fill: #ff7a00"
	/>
	<path
		d="m 232.5,249 c 6.5,-2.2 8.7,-3 11.7,-4.4 4,-1.8 7.1,-4.6 7.1,-9.7 0,-4.5 -3,-8.4 -7.1,-9.6 -3.8,-1.1 -8.3,0.5 -11.7,1.4 l -64,17.2 c -15.7,4.3 -32.3,4.2 -47.9,0 L 56.7,226.7 c -3.4,-0.9 -7.9,-2.5 -11.7,-1.4 -4.2,1.2 -7.1,5.1 -7.1,9.6 0,5.1 3.1,7.9 7.1,9.7 3,1.4 5.2,2.2 11.7,4.4 l 60.7,21.1 c 17.6,6.1 36.7,6.1 54.3,0 z"
		id="XMLID_3_"
		style="fill: #ff7a00"
	/>
</svg>
